<svg width="313" height="57" viewBox="0 0 313 57" fill="none" xmlns="http://www.w3.org/2000/svg">
<path d="M81 43.56C82.3333 43.56 83.5067 43.2 84.52 42.48C85.56 41.76 86.08 40.68 86.08 39.24C86.08 37.7733 85.52 36.6533 84.4 35.88C83.3067 35.1067 81.7333 34.44 79.68 33.88C77.6533 33.2933 76.1733 32.7867 75.24 32.36C74.3333 31.9333 73.4667 31.3733 72.64 30.68C70.9867 29.2933 70.16 27.1467 70.16 24.24C70.16 21.8667 71 19.8267 72.68 18.12C74.3867 16.4133 76.7067 15.56 79.64 15.56C81.0533 15.56 82.52 15.7733 84.04 16.2C85.5867 16.6 86.5467 16.8 86.92 16.8C87.2933 16.8 87.6267 16.5333 87.92 16H88.36L88.64 24.08H88C86.72 21.76 85.3733 19.9067 83.96 18.52C82.5733 17.1067 81.0533 16.4 79.4 16.4C77.7733 16.4 76.5067 16.7867 75.6 17.56C74.6933 18.3067 74.24 19.32 74.24 20.6C74.24 21.8533 74.7733 22.8267 75.84 23.52C76.9333 24.1867 78.2667 24.7333 79.84 25.16C81.4133 25.5867 82.44 25.88 82.92 26.04C83.4267 26.2 84.04 26.4267 84.76 26.72C85.5067 26.9867 86.1067 27.28 86.56 27.6C87.04 27.8933 87.5333 28.28 88.04 28.76C88.5733 29.2133 88.9867 29.72 89.28 30.28C90 31.56 90.36 33.08 90.36 34.84C90.36 37.72 89.4533 40.04 87.64 41.8C85.8533 43.5333 83.4933 44.4 80.56 44.4C79.04 44.4 77.2933 44.2 75.32 43.8C73.3733 43.4 72.2933 43.2 72.08 43.2C71.7067 43.2 71.3467 43.6 71 44.4H70.44L70.04 34.88H70.72C71.8933 37.2 73.3867 39.2267 75.2 40.96C77.04 42.6933 78.9733 43.56 81 43.56ZM104.463 25.68V24.96H114.783V25.68H113.143L116.743 39.16L120.303 25.68H117.543V24.96H122.943V25.68H121.263L116.463 44H110.983L107.503 31.72L103.743 44H98.3828L92.4628 25.68H90.6628V24.96H102.783V25.68H100.383L104.063 39.28L106.943 29.92L105.943 25.68H104.463ZM130.022 22.2C128.609 22.2 127.596 21.84 126.982 21.12C126.396 20.4 126.102 19.5067 126.102 18.44C126.102 17.3733 126.422 16.4933 127.062 15.8C127.729 15.1067 128.729 14.76 130.062 14.76C131.396 14.76 132.409 15.08 133.102 15.72C133.796 16.3333 134.142 17.2267 134.142 18.4C134.142 19.5467 133.809 20.4667 133.142 21.16C132.476 21.8533 131.436 22.2 130.022 22.2ZM123.982 24.96H133.782V43.28H136.022V44H124.142V43.28H126.342V25.68H123.982V24.96ZM146.678 16.72C147.051 15.92 147.104 15.2533 146.838 14.72C146.598 14.16 146.078 13.88 145.278 13.88C144.504 13.88 143.878 14.0933 143.398 14.52C142.944 14.9467 142.718 15.5467 142.718 16.32C142.718 17.0667 142.904 17.8133 143.278 18.56L146.478 24.96H151.358V25.68H146.478V43.28H150.798V44H136.838V43.28H139.038V25.68H136.718V24.96H139.038V23.08C139.038 20.1467 139.638 17.7467 140.838 15.88C142.038 14.0133 143.811 13.08 146.158 13.08C147.944 13.08 149.291 13.52 150.198 14.4C151.131 15.28 151.598 16.3067 151.598 17.48C151.598 18.6267 151.291 19.4933 150.678 20.08C150.064 20.64 149.251 20.92 148.238 20.92C147.251 20.92 146.478 20.6267 145.918 20.04C145.384 19.4533 145.118 18.7067 145.118 17.8C145.118 17.4267 145.131 17.1467 145.158 16.96L146.678 16.72ZM153.603 38.28V25.68H151.403V24.96H153.603V19.8L161.043 17.96V24.96H166.243V25.68H161.043V39.16C161.043 40.4133 161.163 41.3333 161.403 41.92C161.67 42.5067 162.203 42.8 163.003 42.8C163.803 42.8 164.496 42.4 165.083 41.6C165.696 40.8 166.096 39.7067 166.283 38.32L166.963 38.4C166.75 40.24 166.163 41.7067 165.203 42.8C164.243 43.8667 162.656 44.4 160.443 44.4C158.23 44.4 156.536 43.96 155.363 43.08C154.19 42.2 153.603 40.6 153.603 38.28ZM180.065 29.84H177.945V43.24H180.545V44H167.545V43.24H170.145V16.76H167.545V16H179.625C183.092 16 185.545 16.1867 186.985 16.56C188.452 16.9067 189.479 17.3333 190.065 17.84C191.345 18.88 191.985 20.5333 191.985 22.8C191.985 25.0667 191.425 26.6933 190.305 27.68C189.185 28.64 187.479 29.2133 185.185 29.4V29.52C187.345 29.8133 188.852 30.4533 189.705 31.44C190.559 32.4267 190.985 34.08 190.985 36.4V38.52C190.985 39.9067 191.052 40.84 191.185 41.32C191.345 41.8 191.665 42.04 192.145 42.04C192.625 42.04 192.999 41.8267 193.265 41.4C193.559 40.9467 193.825 40.0133 194.065 38.6L194.745 38.68C194.452 40.9467 193.932 42.4667 193.185 43.24C192.465 44.0133 191.012 44.4 188.825 44.4C186.639 44.4 185.079 43.8933 184.145 42.88C183.239 41.84 182.785 39.9067 182.785 37.08V34.16C182.785 32.6667 182.585 31.5733 182.185 30.88C181.812 30.1867 181.105 29.84 180.065 29.84ZM177.945 16.76V29.08H179.225C180.745 29.08 181.865 28.6133 182.585 27.68C183.332 26.7467 183.705 25.2267 183.705 23.12V21.96C183.705 19.8533 183.345 18.4667 182.625 17.8C181.932 17.1067 180.812 16.76 179.265 16.76H177.945ZM206.108 44.4C202.668 44.4 200.081 43.52 198.348 41.76C196.641 39.9733 195.788 37.5067 195.788 34.36C195.788 31.1867 196.748 28.76 198.668 27.08C200.614 25.4 203.081 24.56 206.068 24.56C212.121 24.56 215.028 27.6 214.788 33.68H203.508V35.24C203.508 37.8533 203.841 39.8267 204.508 41.16C205.174 42.4933 206.334 43.16 207.988 43.16C211.081 43.16 213.108 41.5067 214.068 38.2L214.788 38.32C214.281 40.24 213.361 41.7333 212.028 42.8C210.721 43.8667 208.748 44.4 206.108 44.4ZM203.548 32.88H207.668V30.92C207.668 28.76 207.534 27.2933 207.268 26.52C207.028 25.72 206.521 25.32 205.747 25.32C205.001 25.32 204.441 25.7467 204.068 26.6C203.721 27.4267 203.548 28.8667 203.548 30.92V32.88ZM216.742 44.4V37.24H217.222C217.915 39.56 218.849 41.1867 220.022 42.12C221.195 43.0533 222.662 43.52 224.422 43.52C227.142 43.52 228.502 42.6533 228.502 40.92C228.502 40.1733 228.169 39.6133 227.502 39.24C226.462 38.6533 225.129 38.2 223.502 37.88C221.689 37.4 220.169 36.76 218.942 35.96C217.475 35 216.742 33.48 216.742 31.4C216.742 29.32 217.382 27.6667 218.662 26.44C219.942 25.1867 221.649 24.56 223.782 24.56C225.089 24.56 226.435 24.8667 227.822 25.48C228.329 25.6933 228.715 25.8 228.982 25.8C229.249 25.8 229.475 25.7067 229.662 25.52C229.849 25.3333 230.075 24.9867 230.342 24.48H230.782V30.6H230.302C228.942 27.1333 226.835 25.4 223.982 25.4C222.729 25.4 221.795 25.6267 221.182 26.08C220.569 26.5067 220.262 27.0533 220.262 27.72C220.262 28.12 220.355 28.44 220.542 28.68C220.729 28.8933 220.875 29.0533 220.982 29.16C221.089 29.2667 221.262 29.3867 221.502 29.52C221.742 29.6267 221.942 29.72 222.102 29.8C222.262 29.8533 222.502 29.9333 222.822 30.04C223.169 30.1467 223.422 30.2133 223.582 30.24C225.395 30.6933 226.702 31.0933 227.502 31.44C228.302 31.76 229.062 32.16 229.782 32.64C231.249 33.6533 231.982 35.2933 231.982 37.56C231.982 39.8 231.315 41.5067 229.982 42.68C228.649 43.8267 226.822 44.4 224.502 44.4C222.849 44.4 221.249 44.0133 219.702 43.24C219.382 43.0267 219.129 42.92 218.942 42.92C218.355 42.92 217.782 43.4133 217.222 44.4H216.742ZM256.253 44H247.133L246.693 41.08C246.266 42.1467 245.626 42.9733 244.773 43.56C243.946 44.12 242.706 44.4 241.053 44.4C236.92 44.4 234.853 42.1733 234.853 37.72V25.68H232.613V24.96H242.293V38.68C242.293 40.28 242.4 41.3333 242.613 41.84C242.853 42.3467 243.306 42.6 243.973 42.6C244.666 42.6 245.28 42.1867 245.813 41.36C246.346 40.5333 246.613 39.3867 246.613 37.92V25.68H244.773V24.96H254.053V43.28H256.253V44ZM257.072 24.96H266.712V28.64C267.592 25.92 269.525 24.56 272.512 24.56C275.525 24.56 277.352 26 277.992 28.88C278.925 26 280.885 24.56 283.872 24.56C287.792 24.56 289.752 26.7867 289.752 31.24V43.28H291.992V44H280.912V43.28H282.312V30.28C282.312 28.2533 282.139 27.0667 281.792 26.72C281.632 26.56 281.419 26.48 281.152 26.48C280.379 26.48 279.699 27 279.112 28.04C278.525 29.08 278.232 30.4 278.232 32V43.28H279.672V44H269.392V43.28H270.792V30.28C270.792 28.2533 270.619 27.0667 270.272 26.72C270.112 26.56 269.899 26.48 269.632 26.48C268.885 26.48 268.205 27.0533 267.592 28.2C267.005 29.32 266.712 30.6667 266.712 32.24V43.28H268.152V44H257.072V43.28H259.272V25.68H257.072V24.96ZM303.1 44.4C299.66 44.4 297.073 43.52 295.34 41.76C293.633 39.9733 292.78 37.5067 292.78 34.36C292.78 31.1867 293.74 28.76 295.66 27.08C297.606 25.4 300.073 24.56 303.06 24.56C309.113 24.56 312.02 27.6 311.78 33.68H300.5V35.24C300.5 37.8533 300.833 39.8267 301.5 41.16C302.166 42.4933 303.326 43.16 304.98 43.16C308.073 43.16 310.1 41.5067 311.06 38.2L311.78 38.32C311.273 40.24 310.353 41.7333 309.02 42.8C307.713 43.8667 305.74 44.4 303.1 44.4ZM300.54 32.88H304.66V30.92C304.66 28.76 304.526 27.2933 304.26 26.52C304.02 25.72 303.513 25.32 302.74 25.32C301.993 25.32 301.433 25.7467 301.06 26.6C300.713 27.4267 300.54 28.8667 300.54 30.92V32.88Z" fill="#140A44"/>
<rect width="35" height="45" rx="5" fill="#95D6EB"/>
<rect x="6" y="6" width="35" height="45" rx="5" fill="#F9E490"/>
<rect x="12" y="12" width="35" height="45" rx="5" fill="#ED4F4F"/>
</svg>
